<mxfile host="app.diagrams.net" modified="2021-03-02T09:52:42.054Z" agent="5.0 (Macintosh; Intel Mac OS X 11_2_2) AppleWebKit/537.36 (KHTML, like Gecko) Chrome/88.0.4324.192 Safari/537.36" etag="YZkiNZ7m1FPpW2yC1bml" version="14.4.3" type="github">
  <diagram id="C5RBs43oDa-KdzZeNtuy" name="Page-1">
    <mxGraphModel dx="1538" dy="982" grid="1" gridSize="10" guides="1" tooltips="1" connect="1" arrows="1" fold="1" page="1" pageScale="1" pageWidth="827" pageHeight="1169" math="0" shadow="0">
      <root>
        <mxCell id="WIyWlLk6GJQsqaUBKTNV-0" />
        <mxCell id="WIyWlLk6GJQsqaUBKTNV-1" parent="WIyWlLk6GJQsqaUBKTNV-0" />
        <mxCell id="WIyWlLk6GJQsqaUBKTNV-2" value="" style="rounded=0;html=1;jettySize=auto;orthogonalLoop=1;fontSize=11;endArrow=block;endFill=0;endSize=8;strokeWidth=1;shadow=0;labelBackgroundColor=none;edgeStyle=orthogonalEdgeStyle;" parent="WIyWlLk6GJQsqaUBKTNV-1" edge="1">
          <mxGeometry relative="1" as="geometry">
            <mxPoint x="219.5" y="50" as="sourcePoint" />
            <mxPoint x="219.5" y="90" as="targetPoint" />
          </mxGeometry>
        </mxCell>
        <mxCell id="WIyWlLk6GJQsqaUBKTNV-3" value="Start:" style="rounded=1;whiteSpace=wrap;html=1;fontSize=12;glass=0;strokeWidth=1;shadow=0;" parent="WIyWlLk6GJQsqaUBKTNV-1" vertex="1">
          <mxGeometry x="160" y="10" width="120" height="40" as="geometry" />
        </mxCell>
        <mxCell id="hFlREwVvkMzRR6rKnXI--3" value="Data input:&lt;br&gt;User chooses number between 1 and limit" style="shape=parallelogram;perimeter=parallelogramPerimeter;whiteSpace=wrap;html=1;fixedSize=1;" parent="WIyWlLk6GJQsqaUBKTNV-1" vertex="1">
          <mxGeometry x="130" y="470" width="150" height="80" as="geometry" />
        </mxCell>
        <mxCell id="hFlREwVvkMzRR6rKnXI--1" value="Computer generates number between 1 and limit" style="rounded=0;whiteSpace=wrap;html=1;" parent="WIyWlLk6GJQsqaUBKTNV-1" vertex="1">
          <mxGeometry x="160" y="260" width="120" height="50" as="geometry" />
        </mxCell>
        <mxCell id="hFlREwVvkMzRR6rKnXI--5" value="" style="endArrow=classic;html=1;" parent="WIyWlLk6GJQsqaUBKTNV-1" target="hFlREwVvkMzRR6rKnXI--7" edge="1">
          <mxGeometry width="50" height="50" relative="1" as="geometry">
            <mxPoint x="220" y="310" as="sourcePoint" />
            <mxPoint x="220" y="380" as="targetPoint" />
          </mxGeometry>
        </mxCell>
        <mxCell id="hFlREwVvkMzRR6rKnXI--7" value="Computer stores number in variable &quot;box&quot;" style="rounded=0;whiteSpace=wrap;html=1;" parent="WIyWlLk6GJQsqaUBKTNV-1" vertex="1">
          <mxGeometry x="160" y="350" width="120" height="60" as="geometry" />
        </mxCell>
        <mxCell id="hFlREwVvkMzRR6rKnXI--8" value="" style="endArrow=classic;html=1;exitX=0.5;exitY=1;exitDx=0;exitDy=0;entryX=0.548;entryY=-0.04;entryDx=0;entryDy=0;entryPerimeter=0;" parent="WIyWlLk6GJQsqaUBKTNV-1" source="hFlREwVvkMzRR6rKnXI--7" target="hFlREwVvkMzRR6rKnXI--3" edge="1">
          <mxGeometry width="50" height="50" relative="1" as="geometry">
            <mxPoint x="270" y="460" as="sourcePoint" />
            <mxPoint x="320" y="410" as="targetPoint" />
          </mxGeometry>
        </mxCell>
        <mxCell id="hFlREwVvkMzRR6rKnXI--9" value="Data input is stored in variable &quot;input&quot;" style="rounded=0;whiteSpace=wrap;html=1;" parent="WIyWlLk6GJQsqaUBKTNV-1" vertex="1">
          <mxGeometry x="150" y="590" width="120" height="60" as="geometry" />
        </mxCell>
        <mxCell id="hFlREwVvkMzRR6rKnXI--10" value="" style="endArrow=classic;html=1;exitX=0.5;exitY=1;exitDx=0;exitDy=0;" parent="WIyWlLk6GJQsqaUBKTNV-1" source="hFlREwVvkMzRR6rKnXI--3" edge="1">
          <mxGeometry width="50" height="50" relative="1" as="geometry">
            <mxPoint x="260" y="600" as="sourcePoint" />
            <mxPoint x="203" y="588" as="targetPoint" />
          </mxGeometry>
        </mxCell>
        <mxCell id="hFlREwVvkMzRR6rKnXI--11" value="" style="endArrow=classic;html=1;exitX=0.5;exitY=1;exitDx=0;exitDy=0;" parent="WIyWlLk6GJQsqaUBKTNV-1" source="hFlREwVvkMzRR6rKnXI--9" edge="1">
          <mxGeometry width="50" height="50" relative="1" as="geometry">
            <mxPoint x="260" y="720" as="sourcePoint" />
            <mxPoint x="210" y="710" as="targetPoint" />
          </mxGeometry>
        </mxCell>
        <mxCell id="Iktbg8VO4gtjA_F_Y_F0-12" value="" style="edgeStyle=orthogonalEdgeStyle;rounded=0;orthogonalLoop=1;jettySize=auto;html=1;" edge="1" parent="WIyWlLk6GJQsqaUBKTNV-1" source="hFlREwVvkMzRR6rKnXI--12" target="hFlREwVvkMzRR6rKnXI--31">
          <mxGeometry relative="1" as="geometry" />
        </mxCell>
        <mxCell id="hFlREwVvkMzRR6rKnXI--12" value="Is &quot;input&quot; &amp;gt; &quot;box&quot;&amp;nbsp;" style="rhombus;whiteSpace=wrap;html=1;" parent="WIyWlLk6GJQsqaUBKTNV-1" vertex="1">
          <mxGeometry x="147.5" y="710" width="125" height="110" as="geometry" />
        </mxCell>
        <mxCell id="hFlREwVvkMzRR6rKnXI--14" value="You are correct: input equals box" style="shape=parallelogram;perimeter=parallelogramPerimeter;whiteSpace=wrap;html=1;fixedSize=1;" parent="WIyWlLk6GJQsqaUBKTNV-1" vertex="1">
          <mxGeometry x="137.5" y="1180" width="150" height="75" as="geometry" />
        </mxCell>
        <mxCell id="hFlREwVvkMzRR6rKnXI--15" value="Yes" style="text;html=1;align=center;verticalAlign=middle;resizable=0;points=[];autosize=1;" parent="WIyWlLk6GJQsqaUBKTNV-1" vertex="1">
          <mxGeometry x="120" y="740" width="30" height="20" as="geometry" />
        </mxCell>
        <mxCell id="hFlREwVvkMzRR6rKnXI--20" value="" style="endArrow=classic;html=1;exitX=0.5;exitY=1;exitDx=0;exitDy=0;" parent="WIyWlLk6GJQsqaUBKTNV-1" source="hFlREwVvkMzRR6rKnXI--12" edge="1">
          <mxGeometry width="50" height="50" relative="1" as="geometry">
            <mxPoint x="260" y="850" as="sourcePoint" />
            <mxPoint x="210" y="880" as="targetPoint" />
          </mxGeometry>
        </mxCell>
        <mxCell id="hFlREwVvkMzRR6rKnXI--24" value="No" style="text;html=1;align=center;verticalAlign=middle;resizable=0;points=[];autosize=1;" parent="WIyWlLk6GJQsqaUBKTNV-1" vertex="1">
          <mxGeometry x="225" y="840" width="30" height="20" as="geometry" />
        </mxCell>
        <mxCell id="hFlREwVvkMzRR6rKnXI--26" value="Is &quot;input&quot; &amp;lt;&amp;nbsp;&quot;box&quot;&amp;nbsp;" style="rhombus;whiteSpace=wrap;html=1;" parent="WIyWlLk6GJQsqaUBKTNV-1" vertex="1">
          <mxGeometry x="155" y="880" width="110" height="100" as="geometry" />
        </mxCell>
        <mxCell id="hFlREwVvkMzRR6rKnXI--27" value="" style="endArrow=classic;html=1;exitX=0.5;exitY=1;exitDx=0;exitDy=0;" parent="WIyWlLk6GJQsqaUBKTNV-1" source="hFlREwVvkMzRR6rKnXI--14" target="hFlREwVvkMzRR6rKnXI--28" edge="1">
          <mxGeometry width="50" height="50" relative="1" as="geometry">
            <mxPoint x="260" y="840" as="sourcePoint" />
            <mxPoint x="425" y="850" as="targetPoint" />
          </mxGeometry>
        </mxCell>
        <mxCell id="hFlREwVvkMzRR6rKnXI--28" value="End" style="rounded=1;whiteSpace=wrap;html=1;" parent="WIyWlLk6GJQsqaUBKTNV-1" vertex="1">
          <mxGeometry x="155" y="1280" width="115" height="20" as="geometry" />
        </mxCell>
        <mxCell id="hFlREwVvkMzRR6rKnXI--29" value="" style="endArrow=classic;html=1;exitX=1;exitY=0.5;exitDx=0;exitDy=0;entryX=0;entryY=0.5;entryDx=0;entryDy=0;" parent="WIyWlLk6GJQsqaUBKTNV-1" source="hFlREwVvkMzRR6rKnXI--26" edge="1" target="hFlREwVvkMzRR6rKnXI--34">
          <mxGeometry width="50" height="50" relative="1" as="geometry">
            <mxPoint x="260" y="830" as="sourcePoint" />
            <mxPoint x="350" y="930" as="targetPoint" />
          </mxGeometry>
        </mxCell>
        <mxCell id="hFlREwVvkMzRR6rKnXI--30" value="Yes" style="text;html=1;align=center;verticalAlign=middle;resizable=0;points=[];autosize=1;" parent="WIyWlLk6GJQsqaUBKTNV-1" vertex="1">
          <mxGeometry x="275" y="900" width="30" height="20" as="geometry" />
        </mxCell>
        <mxCell id="Iktbg8VO4gtjA_F_Y_F0-10" style="edgeStyle=orthogonalEdgeStyle;rounded=0;orthogonalLoop=1;jettySize=auto;html=1;" edge="1" parent="WIyWlLk6GJQsqaUBKTNV-1" source="hFlREwVvkMzRR6rKnXI--31">
          <mxGeometry relative="1" as="geometry">
            <mxPoint x="210" y="1020" as="targetPoint" />
            <Array as="points">
              <mxPoint x="30" y="1020" />
            </Array>
          </mxGeometry>
        </mxCell>
        <mxCell id="hFlREwVvkMzRR6rKnXI--31" value="My number is lower than box, guess again lower!" style="shape=parallelogram;perimeter=parallelogramPerimeter;whiteSpace=wrap;html=1;fixedSize=1;" parent="WIyWlLk6GJQsqaUBKTNV-1" vertex="1">
          <mxGeometry x="-70" y="725" width="174" height="80" as="geometry" />
        </mxCell>
        <mxCell id="hFlREwVvkMzRR6rKnXI--32" value="" style="endArrow=classic;html=1;entryX=0.991;entryY=0.35;entryDx=0;entryDy=0;entryPerimeter=0;" parent="WIyWlLk6GJQsqaUBKTNV-1" target="hFlREwVvkMzRR6rKnXI--3" edge="1">
          <mxGeometry width="50" height="50" relative="1" as="geometry">
            <mxPoint x="270" y="1090" as="sourcePoint" />
            <mxPoint x="290" y="550" as="targetPoint" />
            <Array as="points">
              <mxPoint x="560" y="1090" />
              <mxPoint x="560" y="498" />
            </Array>
          </mxGeometry>
        </mxCell>
        <mxCell id="Iktbg8VO4gtjA_F_Y_F0-2" value="Yes" style="edgeLabel;html=1;align=center;verticalAlign=middle;resizable=0;points=[];" vertex="1" connectable="0" parent="hFlREwVvkMzRR6rKnXI--32">
          <mxGeometry x="-0.7851" y="1" relative="1" as="geometry">
            <mxPoint x="-95" y="-19" as="offset" />
          </mxGeometry>
        </mxCell>
        <mxCell id="hFlREwVvkMzRR6rKnXI--33" value="" style="endArrow=classic;html=1;exitX=0.5;exitY=1;exitDx=0;exitDy=0;" parent="WIyWlLk6GJQsqaUBKTNV-1" source="hFlREwVvkMzRR6rKnXI--26" edge="1">
          <mxGeometry width="50" height="50" relative="1" as="geometry">
            <mxPoint x="260" y="1050" as="sourcePoint" />
            <mxPoint x="210" y="1040" as="targetPoint" />
          </mxGeometry>
        </mxCell>
        <mxCell id="Iktbg8VO4gtjA_F_Y_F0-9" style="edgeStyle=orthogonalEdgeStyle;rounded=0;orthogonalLoop=1;jettySize=auto;html=1;exitX=0.5;exitY=1;exitDx=0;exitDy=0;" edge="1" parent="WIyWlLk6GJQsqaUBKTNV-1" source="hFlREwVvkMzRR6rKnXI--34" target="Iktbg8VO4gtjA_F_Y_F0-1">
          <mxGeometry relative="1" as="geometry">
            <Array as="points">
              <mxPoint x="423" y="1020" />
              <mxPoint x="210" y="1020" />
            </Array>
          </mxGeometry>
        </mxCell>
        <mxCell id="hFlREwVvkMzRR6rKnXI--34" value="My number is higher than box, guess again higher!" style="shape=parallelogram;perimeter=parallelogramPerimeter;whiteSpace=wrap;html=1;fixedSize=1;" parent="WIyWlLk6GJQsqaUBKTNV-1" vertex="1">
          <mxGeometry x="330" y="885" width="185" height="90" as="geometry" />
        </mxCell>
        <mxCell id="hFlREwVvkMzRR6rKnXI--36" value="No" style="text;html=1;align=center;verticalAlign=middle;resizable=0;points=[];autosize=1;" parent="WIyWlLk6GJQsqaUBKTNV-1" vertex="1">
          <mxGeometry x="215" y="990" width="30" height="20" as="geometry" />
        </mxCell>
        <mxCell id="hFlREwVvkMzRR6rKnXI--37" value="User decides upper limit" style="shape=parallelogram;perimeter=parallelogramPerimeter;whiteSpace=wrap;html=1;fixedSize=1;" parent="WIyWlLk6GJQsqaUBKTNV-1" vertex="1">
          <mxGeometry x="155" y="90" width="130" height="50" as="geometry" />
        </mxCell>
        <mxCell id="hFlREwVvkMzRR6rKnXI--38" value="" style="endArrow=classic;html=1;exitX=0.5;exitY=1;exitDx=0;exitDy=0;" parent="WIyWlLk6GJQsqaUBKTNV-1" source="hFlREwVvkMzRR6rKnXI--37" edge="1">
          <mxGeometry width="50" height="50" relative="1" as="geometry">
            <mxPoint x="270" y="260" as="sourcePoint" />
            <mxPoint x="218" y="180" as="targetPoint" />
          </mxGeometry>
        </mxCell>
        <mxCell id="hFlREwVvkMzRR6rKnXI--39" value="Upper limit is stored in variable &quot;limit&quot;" style="rounded=0;whiteSpace=wrap;html=1;" parent="WIyWlLk6GJQsqaUBKTNV-1" vertex="1">
          <mxGeometry x="162.5" y="180" width="120" height="40" as="geometry" />
        </mxCell>
        <mxCell id="hFlREwVvkMzRR6rKnXI--42" value="" style="endArrow=classic;html=1;exitX=0.5;exitY=1;exitDx=0;exitDy=0;" parent="WIyWlLk6GJQsqaUBKTNV-1" source="hFlREwVvkMzRR6rKnXI--39" target="hFlREwVvkMzRR6rKnXI--1" edge="1">
          <mxGeometry width="50" height="50" relative="1" as="geometry">
            <mxPoint x="210" y="220" as="sourcePoint" />
            <mxPoint x="320" y="210" as="targetPoint" />
          </mxGeometry>
        </mxCell>
        <mxCell id="Iktbg8VO4gtjA_F_Y_F0-8" value="" style="edgeStyle=orthogonalEdgeStyle;rounded=0;orthogonalLoop=1;jettySize=auto;html=1;" edge="1" parent="WIyWlLk6GJQsqaUBKTNV-1" source="Iktbg8VO4gtjA_F_Y_F0-1" target="hFlREwVvkMzRR6rKnXI--14">
          <mxGeometry relative="1" as="geometry" />
        </mxCell>
        <mxCell id="Iktbg8VO4gtjA_F_Y_F0-1" value="Is input&quot; != &quot;box&amp;nbsp;" style="rhombus;whiteSpace=wrap;html=1;" vertex="1" parent="WIyWlLk6GJQsqaUBKTNV-1">
          <mxGeometry x="155" y="1040" width="110" height="100" as="geometry" />
        </mxCell>
      </root>
    </mxGraphModel>
  </diagram>
</mxfile>
